# xmcd
#
# Track frame offsets:
#	183
#	17370
#	28508
#	39595
#	51840
#	63725
#	79785
#	91635
#	104333
#	120023
#	133825
#	146463
#	157835
#	171938
#	182790
#	196603
#
# Disc length: 2781 seconds
#
# Revision: 1
# Processed by: cddbd v1.4PL0 Copyright (c) Steve Scherf et al.
# Submitted via: MusicWizard 6.0.2
#
DISCID=c10adb10
DTITLE=Various Artist - The World Of Country And Weastern Songs Vol. 1
DYEAR=1900
DGENRE=
TTITLE0=Bobby Bare - Sylvia's Mother
TTITLE1=Freddy Quinn - Some Broken Hearts Never Ment
TTITLE2=Dave Dudley - My Sunny Overgrown Country Town
TTITLE3=David Price - I Need A Friend
TTITLE4=Ferlin Husky - Money Greases The Wheels
TTITLE5=Rick Pilgreen - If I Had A Chance
TTITLE6=Dave Dudley - Six Days On The Road
TTITLE7=Bobby Bare - Rosalee
TTITLE8=Karen O'Donnel - I Know What It's All About Now, Mama
TTITLE9=Ronnie Rogers - Diane
TTITLE10=Bobby Bare - The Year That Clayton Delaney Died
TTITLE11=Freddy Quinn - Jambalaya
TTITLE12=Barbara Perry - Why Can't Women Have A Good Beer Drinkin' Song
TTITLE13=George Kent - I'm In A Bad Mood Tonight
TTITLE14=Blilly Grammer - The Hour Of Separation
TTITLE15=Ferlin Husky - I Could Sing All Night
EXTD=
EXTT0=
EXTT1=
EXTT2=
EXTT3=
EXTT4=
EXTT5=
EXTT6=
EXTT7=
EXTT8=
EXTT9=
EXTT10=
EXTT11=
EXTT12=
EXTT13=
EXTT14=
EXTT15=
PLAYORDER=
